<svg width="180" height="180" viewBox="0 0 512 512" fill="none" xmlns="http://www.w3.org/2000/svg">
  <!-- Blue circular background -->
  <circle cx="256" cy="256" r="256" fill="#2563eb"/>
  
  <!-- White chain link icon -->
  <g fill="white">
    <!-- Top-right link -->
    <path d="M380 132c-44.18 0-80 35.82-80 80v16c0 8.84-7.16 16-16 16s-16-7.16-16-16v-16c0-61.86 50.14-112 112-112s112 50.14 112 112-50.14 112-112 112h-16c-8.84 0-16-7.16-16-16s7.16-16 16-16h16c44.18 0 80-35.82 80-80s-35.82-80-80-80z"/>
    
    <!-- Bottom-left link -->
    <path d="M132 380c44.18 0 80-35.82 80-80v-16c0-8.84 7.16-16 16-16s16 7.16 16 16v16c0 61.86-50.14 112-112 112s-112-50.14-112-112 50.14-112 112-112h16c8.84 0 16 7.16 16 16s-7.16 16-16 16h-16c-44.18 0-80 35.82-80 80s35.82 80 80 80z"/>
    
    <!-- Connecting piece -->
    <path d="M200 256c0 13.25 10.75 24 24 24h64c13.25 0 24-10.75 24-24s-10.75-24-24-24h-64c-13.25 0-24 10.75-24 24z"/>
  </g>
</svg>